<svg width="205" height="278" viewBox="0 0 205 278" fill="none" xmlns="http://www.w3.org/2000/svg">
<g clip-path="url(#clip0_414_1563)">
<path d="M90.9801 7.70984C95.4301 1.05984 101.66 -1.24014 109.28 0.629856C116.8 2.47986 121.46 7.73984 123.27 14.9898C124.16 18.5398 125.25 21.4498 127.77 24.1198C131.71 28.2998 130.76 33.7298 130.69 38.8598C131.03 46.9098 125.5 53.2799 115.87 55.3799C110.96 56.4499 105.54 58.3799 102.39 51.9699C102.06 50.4999 102.7 48.8098 101.47 47.3998C101.14 46.6198 100.32 48.0798 101.11 47.6098C101.46 47.3998 101.88 47.9299 102 48.4499C102.16 49.1199 102.19 49.7999 102.16 50.5099C99.2001 56.9299 97.1501 57.6799 89.2601 55.2199C87.4501 53.8099 85.5901 52.4399 83.8201 50.9699C78.8101 46.0999 76.4901 40.2598 77.7701 33.2398C78.6401 28.4698 80.5301 26.7699 85.1701 25.7899C83.7301 25.7099 82.4101 26.2298 81.1501 26.9898C78.1401 28.8098 74.7701 31.3699 72.1901 27.0099C69.9501 23.2299 69.2801 18.9999 74.2501 16.2599C77.4701 11.1199 81.0401 6.29986 86.3801 3.12986C90.8701 0.459856 89.3801 4.02985 89.4101 6.02985C89.0001 7.48985 88.9301 8.60984 90.9801 7.70984Z" fill="#FDFDFD"/>
<path d="M171.25 122.21C166.13 121.21 160.68 121.5 156.21 117.97C153.09 115.51 152.95 113.42 156.39 111.29C154.66 109.3 152.03 111.26 150.16 109.85C145.79 107.51 143.66 104.71 146.52 99.4599C148.4 95.9999 148.21 91.7899 147.87 87.8099C147 77.4799 149.03 74.9099 159.35 73.4699C161.17 73.2199 163.03 73.1899 164.87 73.0499C173.28 77.5999 181.54 72.6899 189.88 72.6299C191.45 72.9599 192.9 73.5699 194.22 74.4899C194.68 74.9299 194.95 75.4699 195.02 76.1199C198.29 79.0599 202.15 81.3999 203.78 85.9099C206.01 92.0599 205.3 93.1999 198.34 92.8499C199.96 97.4099 203.89 102.16 197.63 106.05C193.25 108.77 189.04 111.2 184.86 104.2C185.79 115 181.06 120.73 171.25 122.21Z" fill="#FCFCFC"/>
<path d="M37.4701 57.3999C34.0401 56.1799 31.2001 57.7499 28.1701 59.1199C19.6701 62.9599 9.44008 60.5499 4.97008 53.6999C2.72008 50.2399 -0.34992 46.0199 8.06008 47.2399C2.12008 36.0399 3.13007 28.4499 11.4601 20.9799C16.4701 16.4899 21.8201 14.4199 27.6601 19.5999C29.0101 20.7999 29.8501 21.1899 31.7401 20.1199C44.9301 12.6199 54.4601 16.5999 58.7101 31.1199C58.9701 31.9999 59.4301 32.8099 59.8001 33.6599C62.5201 35.8799 60.7301 38.5599 60.5701 41.0799C58.6701 48.8799 54.2301 54.5799 46.7701 57.6799C43.6701 58.9499 40.5001 59.7399 37.4701 57.3999Z" fill="#FDFDFD"/>
<path d="M168.49 71.4999C163.18 66.6699 156.74 66.9499 151.31 69.8499C146.17 72.5999 142.87 73.3199 140.3 67.4999C137.73 61.6599 130.19 61.4499 127.47 55.8499C130.47 49.1299 133.74 42.5499 137.59 36.2799C141.87 31.0899 145.42 31.7399 151.81 38.8799C155.98 43.2099 152.18 48.8699 154.25 53.5499C154.1 55.9399 155.66 56.5199 157.42 55.9899C163.51 54.1399 165.47 47.06 161.5 41.7C159.99 40.04 157.19 42.4699 155.95 39.9399C158.46 29.0699 164.28 25.9999 172.25 31.3799C177.06 34.6299 177.28 36.43 173.08 41.26C179.04 41.72 184.93 42.2 187.35 48.7C189.89 55.52 187.13 60.9299 182.57 65.7999C178.2 71.9999 174.41 73.5399 168.49 71.4999Z" fill="#FCFCFC"/>
<path d="M36.3701 114.08C33.0401 120.5 26.2701 118.89 20.9501 120.57C19.4601 121.04 18.9701 119.1 19.2301 117.51C19.6401 115 20.0401 112.47 18.5601 109.66C16.7801 113.26 16.1001 117.64 10.6601 117.06C5.95007 116.56 2.94006 114.06 0.900056 110.12C-1.27994 105.91 -0.869935 101.86 2.66007 98.5498C4.29007 97.0098 5.19006 96.1998 4.06006 93.4498C0.20006 84.0898 3.76006 75.7898 12.8101 71.4598C21.2001 67.4498 31.24 70.3698 36.08 78.2798C37.03 79.8398 37.8601 81.4698 38.7501 83.0698C39.4101 83.2098 40.0101 83.4798 40.5601 83.8698C45.6201 85.9698 48.9701 89.5998 50.4301 94.9498C51.3601 102.48 49.6201 108.69 42.1201 112.09C40.1601 112.37 38.5901 111.84 37.7201 109.96C38.3401 110.72 36.6901 109.7 37.5701 109.38C38.4501 109.05 37.62 107.87 37.5201 108.75C37.3 110.56 37.8901 112.53 36.3701 114.08Z" fill="#FDFDFD"/>
<path d="M47.7498 78.6499C54.2498 74.0699 61.1498 74.4799 65.4998 79.6899C65.1598 81.8499 64.9098 84.0299 63.5298 85.8399C62.7498 87.0799 62.4798 88.5499 61.8298 89.8499C62.4298 88.8699 62.6198 87.7199 63.1198 86.6999C63.9998 84.2099 65.9498 82.6999 67.9998 81.2799C70.1698 79.1799 72.9898 78.7799 75.7198 78.8499C81.2798 78.9799 83.2298 82.4999 81.3298 87.6599C79.3898 92.9099 77.2098 98.2699 79.8698 104C81.2798 111.29 82.7498 113.8 90.7598 122.32C84.3698 122.02 77.6198 124.72 74.2898 116.69C73.2798 114.95 72.2698 113.22 70.4398 110.09C69.4198 114.87 70.0298 119.44 64.5398 119.67C60.5198 119.84 56.7798 119.3 53.0998 117.85C47.8098 117.47 46.7898 114.27 48.5098 110.03C50.4798 105.18 51.4398 100.16 52.1198 95.0399C52.5198 91.4899 50.1998 88.9699 48.7998 86.0899C47.6498 83.7399 45.6498 81.4699 47.7498 78.6499Z" fill="#FCFCFC"/>
<path d="M43.4599 63.1099C45.2299 63.7999 47.9599 61.1699 48.8799 65.1699C49.5499 68.0799 49.3699 69.7299 46.4399 70.9999C45.0999 71.5799 44.2099 73.1999 43.1099 74.3499C38.9599 72.4999 37.5599 67.5699 32.4399 65.9099C36.3299 62.9199 40.5299 65.5199 43.4599 63.1099Z" fill="#F6F6F6"/>
<path d="M52.87 114.03C53.71 114.93 54.55 115.83 55.39 116.73C52.93 117.09 50.46 117.65 47.52 116.62C48.99 114.71 50.51 113.6 52.87 114.03Z" fill="#F8F8F8"/>
<path d="M90.9803 7.70981C90.6903 8.91981 90.4103 10.1298 89.8703 12.3898C89.3403 9.36983 89.1903 7.6398 90.1303 6.0498C90.4103 6.5998 90.6903 7.14981 90.9803 7.70981Z" fill="#6D6D6D"/>
<path d="M85.6201 102.08C86.0801 87.03 92.6401 79.66 104.99 80.57C104.91 77.78 102.57 77.19 100.81 76.82C94.7001 75.52 96.4401 71.87 98.2401 68.46C102.43 60.5 109.84 59.8 117.64 60.18C121.23 62.21 125.19 63.38 128.59 65.93C132.37 68.76 131.01 70.16 127.82 71.67C128.37 75.53 131.88 72.45 133.39 74.06C141.05 78.88 144.35 88.38 141.43 96.64C139.67 101.64 135.57 101.23 130.92 101.25C133.13 104.85 136.1 108.02 132.87 112.29C127.52 119.36 119.77 118.4 110.96 119.25C119 110.68 119.83 101.37 117.1 91.24C113.94 95.59 109.86 98.9 104.5 101.08C107.11 103.2 109.19 104.98 109.41 108.03C109.64 111.34 110.03 114.69 107.11 117.18C104.18 119.68 101.36 117.85 98.6001 116.79C91.7401 114.16 87.8501 108.84 85.6201 102.08Z" fill="#FDFDFD"/>
<path d="M129.97 121.84C134.15 118.92 136.07 115.19 138.38 111.4C141.17 115.01 143.71 118.29 146.75 122.23C141.05 122.85 135.86 123.1 129.97 121.84Z" fill="#F0EEEF"/>
<path d="M133.38 74.1198C131.35 74.1598 129.32 74.1999 127.28 74.2299C126.41 74.2399 125.25 74.2498 125.7 73.4398C125.92 73.0498 127.08 72.8698 127.81 72.5898C129.22 73.7798 132.12 72.7098 133.38 74.1198Z" fill="#6D6D6D"/>
<path d="M110.78 28.7699C111.48 28.7699 112.34 28.5099 112.86 28.8199C115.29 30.2699 119.35 24.8999 120.33 29.9999C121.17 34.3499 118.67 38.2099 114.59 40.4499C110.04 42.9499 102.1 39.1999 101.05 34.1699C100.45 31.2799 101.77 29.5699 104.46 29.0699C106.52 28.6899 108.66 28.7599 110.76 28.6299C110.77 28.6599 110.77 28.7199 110.78 28.7699Z" fill="#6D6D6D"/>
<path d="M103.29 50.2199C102.45 49.7699 101.62 49.3099 100.78 48.8599C100.34 47.7799 100.79 45.8499 101.17 45.9799C103.16 46.6899 103.64 48.3699 103.29 50.2199Z" fill="#6D6D6D"/>
<path d="M171.13 91.8499C172.24 89.0699 170 83.8698 175.8 83.6098C180.95 83.3798 185.76 88.6298 185.52 93.6098C185.27 98.7998 181.98 101.29 177.32 101.31C171.36 101.32 171.26 96.6099 171.13 91.8499Z" fill="#6D6D6D"/>
<path d="M23.9101 46.6898C18.4201 44.6598 14.7301 41.2999 15.3501 36.7299C16.0601 31.4699 20.4201 28.2698 26.6901 27.0898C24.7201 33.5298 23.9801 39.6398 23.9101 46.6898Z" fill="#6D6D6D"/>
<path d="M12.6201 92.3898C12.9601 87.2898 15.1101 84.0798 19.9701 84.3498C24.0301 84.5698 29.6801 87.0198 28.8301 90.4698C27.5101 95.7998 20.6801 95.5598 15.8901 96.6398C12.3701 97.4198 12.7501 94.1798 12.6201 92.3898Z" fill="#6D6D6D"/>
<path d="M65.5201 40.2798C69.7801 36.8398 72.7301 36.3698 73.9301 43.1098C74.6001 46.8898 76.3901 50.5099 79.5701 53.0999C80.9901 54.1799 83.1901 54.2999 83.7201 56.4799C89.7901 59.4199 93.8101 61.5998 90.4701 70.8298C87.8501 78.0698 86.9001 77.4398 82.3601 73.8398C81.6601 73.2898 80.6901 73.0799 79.8401 72.7199C76.1501 71.5499 71.8801 72.9699 68.5601 70.1399C63.6901 68.4799 56.3901 71.5299 55.2801 62.4999C54.9901 60.1099 54.8801 58.8199 56.6101 57.2199C59.5301 54.5199 62.1501 51.5299 62.9501 47.4099C63.7501 45.0099 62.8901 42.0098 65.5201 40.2798Z" fill="#FCFCFC"/>
<path d="M68.5498 70.1398C69.6998 70.4898 68.9198 63.5598 71.3998 69.3098C73.1998 73.4898 77.8798 69.4898 79.8298 72.7198C75.9698 72.3298 71.5898 74.2198 68.5498 70.1398Z" fill="#6D6D6D"/>
<path d="M67.9898 81.2899C66.6698 83.1799 65.3498 85.0699 64.0298 86.9699C62.5598 87.0799 61.9798 86.5099 62.5598 85.0399C62.9898 82.9499 63.6298 80.98 65.5098 79.7C66.3398 80.23 67.1698 80.7599 67.9898 81.2899Z" fill="#6D6D6D"/>
<path d="M149.88 278.18H141.43C140.42 278.18 139.66 277.67 139.73 277.03L156.68 133.25C156.83 131.94 158.15 130.86 159.61 130.86H171.85C173.31 130.86 174.34 131.93 174.13 133.25L151.87 277.03C151.79 277.67 150.89 278.18 149.88 278.18Z" fill="#6FEDFF"/>
<path d="M60.4501 278.18H52.0001C50.9901 278.18 50.0901 277.67 49.9901 277.03L27.7301 133.25C27.5301 131.94 28.5501 130.86 30.0101 130.86H42.2501C43.7101 130.86 45.0301 131.93 45.1801 133.25L62.1301 277.03C62.2201 277.67 61.4601 278.18 60.4501 278.18Z" fill="#6FEDFF"/>
<path d="M126.37 278.18H117.92C116.91 278.18 116.11 277.67 116.14 277.03L122.16 133.25C122.22 131.94 123.45 130.86 124.91 130.86H137.15C138.61 130.86 139.72 131.93 139.61 133.25L128.28 277.03C128.24 277.67 127.38 278.18 126.37 278.18Z" fill="#6FEDFF"/>
<path d="M102.96 278.18H94.5099C93.4999 278.18 92.6699 277.67 92.6499 277.03L89.0299 133.25C88.9999 131.94 90.1599 130.86 91.6199 130.86H103.86C105.32 130.86 106.5 131.93 106.48 133.25L104.79 277.03C104.8 277.67 103.98 278.18 102.96 278.18Z" fill="#6FEDFF"/>
<path d="M80.9701 278.18H72.52C71.51 278.18 70.64 277.67 70.58 277.03L57.3201 133.25C57.2001 131.94 58.2901 130.86 59.7501 130.86H71.99C73.4501 130.86 74.7 131.93 74.77 133.25L82.7201 277.03C82.7701 277.67 81.9801 278.18 80.9701 278.18Z" fill="#6FEDFF"/>
</g>
<defs>
<clipPath id="clip0_414_1563">
<rect width="205" height="278" fill="white"/>
</clipPath>
</defs>
</svg>
